<mxfile host="app.diagrams.net" modified="2020-06-19T08:46:16.876Z" agent="5.0 (Windows)" etag="kYZmxZncCcQlsocWWajX" version="13.2.4" type="github">
  <diagram id="8_bTyDZzk1gE1jzVisYs" name="Page-1">
    <mxGraphModel dx="1221" dy="644" grid="1" gridSize="10" guides="1" tooltips="1" connect="1" arrows="1" fold="1" page="1" pageScale="1" pageWidth="827" pageHeight="1169" math="0" shadow="0">
      <root>
        <mxCell id="0" />
        <mxCell id="1" parent="0" />
        <mxCell id="ttQCRUFPG-6sSN7cf8M8-1" value="持卡人" style="rounded=1;whiteSpace=wrap;html=1;fillColor=#dae8fc;strokeColor=#6c8ebf;fontSize=17;" vertex="1" parent="1">
          <mxGeometry x="110" y="40" width="90" height="30" as="geometry" />
        </mxCell>
        <mxCell id="ttQCRUFPG-6sSN7cf8M8-2" value="商家" style="rounded=1;whiteSpace=wrap;html=1;fillColor=#dae8fc;strokeColor=#6c8ebf;fontSize=17;" vertex="1" parent="1">
          <mxGeometry x="280" y="40" width="90" height="30" as="geometry" />
        </mxCell>
        <mxCell id="ttQCRUFPG-6sSN7cf8M8-4" value="收单平台" style="rounded=1;whiteSpace=wrap;html=1;fillColor=#dae8fc;strokeColor=#6c8ebf;fontSize=17;" vertex="1" parent="1">
          <mxGeometry x="611.25" y="40" width="90" height="30" as="geometry" />
        </mxCell>
        <mxCell id="ttQCRUFPG-6sSN7cf8M8-5" value="台新银行" style="rounded=1;whiteSpace=wrap;html=1;fillColor=#dae8fc;strokeColor=#6c8ebf;fontSize=17;" vertex="1" parent="1">
          <mxGeometry x="781.25" y="40" width="90" height="30" as="geometry" />
        </mxCell>
        <mxCell id="ttQCRUFPG-6sSN7cf8M8-6" value="" style="endArrow=none;dashed=1;html=1;fontSize=17;entryX=0.5;entryY=1;entryDx=0;entryDy=0;" edge="1" parent="1" source="ttQCRUFPG-6sSN7cf8M8-13" target="ttQCRUFPG-6sSN7cf8M8-1">
          <mxGeometry width="50" height="50" relative="1" as="geometry">
            <mxPoint x="155" y="630" as="sourcePoint" />
            <mxPoint x="180" y="170" as="targetPoint" />
          </mxGeometry>
        </mxCell>
        <mxCell id="ttQCRUFPG-6sSN7cf8M8-7" value="" style="endArrow=none;dashed=1;html=1;fontSize=17;entryX=0.5;entryY=1;entryDx=0;entryDy=0;" edge="1" parent="1">
          <mxGeometry width="50" height="50" relative="1" as="geometry">
            <mxPoint x="319" y="240" as="sourcePoint" />
            <mxPoint x="320" y="70" as="targetPoint" />
          </mxGeometry>
        </mxCell>
        <mxCell id="ttQCRUFPG-6sSN7cf8M8-9" value="" style="endArrow=none;dashed=1;html=1;fontSize=17;" edge="1" parent="1" source="ttQCRUFPG-6sSN7cf8M8-59" target="ttQCRUFPG-6sSN7cf8M8-4">
          <mxGeometry width="50" height="50" relative="1" as="geometry">
            <mxPoint x="656" y="560" as="sourcePoint" />
            <mxPoint x="655.75" y="130" as="targetPoint" />
          </mxGeometry>
        </mxCell>
        <mxCell id="ttQCRUFPG-6sSN7cf8M8-10" value="" style="endArrow=none;dashed=1;html=1;fontSize=17;entryX=0.5;entryY=1;entryDx=0;entryDy=0;" edge="1" parent="1">
          <mxGeometry width="50" height="50" relative="1" as="geometry">
            <mxPoint x="830.25" y="560" as="sourcePoint" />
            <mxPoint x="831.25" y="130" as="targetPoint" />
          </mxGeometry>
        </mxCell>
        <mxCell id="ttQCRUFPG-6sSN7cf8M8-11" value="" style="rounded=0;whiteSpace=wrap;html=1;fontSize=17;fillColor=#d5e8d4;strokeColor=#82b366;" vertex="1" parent="1">
          <mxGeometry x="312" y="150" width="15" height="40" as="geometry" />
        </mxCell>
        <mxCell id="ttQCRUFPG-6sSN7cf8M8-12" value="" style="endArrow=none;dashed=1;html=1;fontSize=17;entryX=0.5;entryY=1;entryDx=0;entryDy=0;" edge="1" parent="1" target="ttQCRUFPG-6sSN7cf8M8-11">
          <mxGeometry width="50" height="50" relative="1" as="geometry">
            <mxPoint x="319" y="550" as="sourcePoint" />
            <mxPoint x="320" y="130" as="targetPoint" />
          </mxGeometry>
        </mxCell>
        <mxCell id="ttQCRUFPG-6sSN7cf8M8-13" value="" style="rounded=0;whiteSpace=wrap;html=1;fontSize=17;fillColor=#d5e8d4;strokeColor=#82b366;" vertex="1" parent="1">
          <mxGeometry x="147.5" y="110" width="15" height="40" as="geometry" />
        </mxCell>
        <mxCell id="ttQCRUFPG-6sSN7cf8M8-14" value="" style="endArrow=none;dashed=1;html=1;fontSize=17;entryX=0.5;entryY=1;entryDx=0;entryDy=0;" edge="1" parent="1" target="ttQCRUFPG-6sSN7cf8M8-13">
          <mxGeometry width="50" height="50" relative="1" as="geometry">
            <mxPoint x="154" y="560" as="sourcePoint" />
            <mxPoint x="155" y="130" as="targetPoint" />
          </mxGeometry>
        </mxCell>
        <mxCell id="ttQCRUFPG-6sSN7cf8M8-16" value="&lt;div&gt;展示银行卡和&lt;/div&gt;&lt;div&gt;POS凭证&lt;br&gt;&lt;/div&gt;" style="text;html=1;align=center;verticalAlign=middle;resizable=0;points=[];autosize=1;fontSize=15;" vertex="1" parent="1">
          <mxGeometry x="190" y="110" width="110" height="40" as="geometry" />
        </mxCell>
        <mxCell id="ttQCRUFPG-6sSN7cf8M8-20" value="" style="rounded=0;whiteSpace=wrap;html=1;fontSize=17;fillColor=#d5e8d4;strokeColor=#82b366;" vertex="1" parent="1">
          <mxGeometry x="648.75" y="270" width="15" height="90" as="geometry" />
        </mxCell>
        <mxCell id="ttQCRUFPG-6sSN7cf8M8-21" value="" style="endArrow=classic;html=1;fontSize=15;exitX=1;exitY=1;exitDx=0;exitDy=0;entryX=0;entryY=0;entryDx=0;entryDy=0;" edge="1" parent="1" target="ttQCRUFPG-6sSN7cf8M8-20">
          <mxGeometry width="50" height="50" relative="1" as="geometry">
            <mxPoint x="493.75" y="270" as="sourcePoint" />
            <mxPoint x="561.25" y="280" as="targetPoint" />
          </mxGeometry>
        </mxCell>
        <mxCell id="ttQCRUFPG-6sSN7cf8M8-22" value="&lt;div&gt;提交退款订单单号，&lt;/div&gt;&lt;div&gt;选择退款&lt;br&gt;&lt;/div&gt;" style="text;html=1;align=center;verticalAlign=middle;resizable=0;points=[];autosize=1;fontSize=14;" vertex="1" parent="1">
          <mxGeometry x="506.25" y="280" width="140" height="40" as="geometry" />
        </mxCell>
        <mxCell id="ttQCRUFPG-6sSN7cf8M8-23" value="" style="curved=1;endArrow=classic;html=1;fontSize=15;exitX=1;exitY=0;exitDx=0;exitDy=0;" edge="1" parent="1" source="ttQCRUFPG-6sSN7cf8M8-20">
          <mxGeometry width="50" height="50" relative="1" as="geometry">
            <mxPoint x="621.25" y="390" as="sourcePoint" />
            <mxPoint x="666.25" y="309" as="targetPoint" />
            <Array as="points">
              <mxPoint x="681.25" y="270" />
              <mxPoint x="701.25" y="280" />
              <mxPoint x="701.25" y="290" />
              <mxPoint x="691.25" y="300" />
            </Array>
          </mxGeometry>
        </mxCell>
        <mxCell id="ttQCRUFPG-6sSN7cf8M8-24" value="授权验证" style="text;html=1;align=center;verticalAlign=middle;resizable=0;points=[];autosize=1;fontSize=14;" vertex="1" parent="1">
          <mxGeometry x="696.25" y="270" width="70" height="20" as="geometry" />
        </mxCell>
        <mxCell id="ttQCRUFPG-6sSN7cf8M8-25" value="" style="curved=1;endArrow=classic;html=1;fontSize=15;exitX=1;exitY=0.5;exitDx=0;exitDy=0;entryX=1;entryY=1;entryDx=0;entryDy=0;" edge="1" parent="1" source="ttQCRUFPG-6sSN7cf8M8-20" target="ttQCRUFPG-6sSN7cf8M8-20">
          <mxGeometry width="50" height="50" relative="1" as="geometry">
            <mxPoint x="663.75" y="270" as="sourcePoint" />
            <mxPoint x="666.2550000000001" y="308.97" as="targetPoint" />
            <Array as="points">
              <mxPoint x="701.25" y="330" />
              <mxPoint x="691.25" y="350" />
            </Array>
          </mxGeometry>
        </mxCell>
        <mxCell id="ttQCRUFPG-6sSN7cf8M8-26" value="显示订单状态" style="text;html=1;align=center;verticalAlign=middle;resizable=0;points=[];autosize=1;fontSize=14;" vertex="1" parent="1">
          <mxGeometry x="681.25" y="320" width="100" height="20" as="geometry" />
        </mxCell>
        <mxCell id="ttQCRUFPG-6sSN7cf8M8-27" value="" style="rounded=0;whiteSpace=wrap;html=1;fontSize=17;fillColor=#d5e8d4;strokeColor=#82b366;" vertex="1" parent="1">
          <mxGeometry x="823.75" y="360" width="15" height="110" as="geometry" />
        </mxCell>
        <mxCell id="ttQCRUFPG-6sSN7cf8M8-28" value="" style="endArrow=classic;html=1;fontSize=15;" edge="1" parent="1">
          <mxGeometry width="50" height="50" relative="1" as="geometry">
            <mxPoint x="661.25" y="360" as="sourcePoint" />
            <mxPoint x="821.25" y="360" as="targetPoint" />
          </mxGeometry>
        </mxCell>
        <mxCell id="ttQCRUFPG-6sSN7cf8M8-29" value="&lt;div&gt;调用other API，&lt;/div&gt;&lt;div&gt;请求退款授权&lt;/div&gt;" style="text;html=1;align=center;verticalAlign=middle;resizable=0;points=[];autosize=1;fontSize=14;" vertex="1" parent="1">
          <mxGeometry x="678.25" y="360" width="120" height="40" as="geometry" />
        </mxCell>
        <mxCell id="ttQCRUFPG-6sSN7cf8M8-30" value="" style="curved=1;endArrow=classic;html=1;fontSize=15;exitX=1;exitY=0;exitDx=0;exitDy=0;entryX=1.139;entryY=0.424;entryDx=0;entryDy=0;entryPerimeter=0;" edge="1" parent="1" source="ttQCRUFPG-6sSN7cf8M8-27" target="ttQCRUFPG-6sSN7cf8M8-27">
          <mxGeometry width="50" height="50" relative="1" as="geometry">
            <mxPoint x="663.75" y="315" as="sourcePoint" />
            <mxPoint x="663.75" y="360" as="targetPoint" />
            <Array as="points">
              <mxPoint x="871.25" y="380" />
            </Array>
          </mxGeometry>
        </mxCell>
        <mxCell id="ttQCRUFPG-6sSN7cf8M8-31" value="验证密钥" style="text;html=1;align=center;verticalAlign=middle;resizable=0;points=[];autosize=1;fontSize=15;" vertex="1" parent="1">
          <mxGeometry x="871.25" y="370" width="80" height="20" as="geometry" />
        </mxCell>
        <mxCell id="ttQCRUFPG-6sSN7cf8M8-34" value="" style="endArrow=classic;html=1;fontSize=15;exitX=0;exitY=1;exitDx=0;exitDy=0;entryX=1;entryY=0;entryDx=0;entryDy=0;" edge="1" parent="1" target="ttQCRUFPG-6sSN7cf8M8-59">
          <mxGeometry width="50" height="50" relative="1" as="geometry">
            <mxPoint x="823.75" y="470.0000000000002" as="sourcePoint" />
            <mxPoint x="660" y="470" as="targetPoint" />
          </mxGeometry>
        </mxCell>
        <mxCell id="ttQCRUFPG-6sSN7cf8M8-35" value="回传退款结果" style="text;html=1;align=center;verticalAlign=middle;resizable=0;points=[];autosize=1;fontSize=14;" vertex="1" parent="1">
          <mxGeometry x="681.25" y="490" width="100" height="20" as="geometry" />
        </mxCell>
        <mxCell id="ttQCRUFPG-6sSN7cf8M8-39" value="" style="endArrow=classic;html=1;fontSize=14;exitX=1;exitY=1;exitDx=0;exitDy=0;entryX=0.167;entryY=0;entryDx=0;entryDy=0;entryPerimeter=0;" edge="1" parent="1" source="ttQCRUFPG-6sSN7cf8M8-11" target="ttQCRUFPG-6sSN7cf8M8-55">
          <mxGeometry width="50" height="50" relative="1" as="geometry">
            <mxPoint x="210" y="310" as="sourcePoint" />
            <mxPoint x="487.5" y="190" as="targetPoint" />
          </mxGeometry>
        </mxCell>
        <mxCell id="ttQCRUFPG-6sSN7cf8M8-41" value="提交调账申请表" style="text;html=1;align=center;verticalAlign=middle;resizable=0;points=[];autosize=1;fontSize=15;" vertex="1" parent="1">
          <mxGeometry x="345" y="165" width="120" height="20" as="geometry" />
        </mxCell>
        <mxCell id="ttQCRUFPG-6sSN7cf8M8-42" value="" style="curved=1;endArrow=classic;html=1;fontSize=15;exitX=1;exitY=0.5;exitDx=0;exitDy=0;entryX=1;entryY=1;entryDx=0;entryDy=0;" edge="1" parent="1" source="ttQCRUFPG-6sSN7cf8M8-27" target="ttQCRUFPG-6sSN7cf8M8-27">
          <mxGeometry width="50" height="50" relative="1" as="geometry">
            <mxPoint x="838.75" y="360" as="sourcePoint" />
            <mxPoint x="840.835" y="406.6400000000001" as="targetPoint" />
            <Array as="points">
              <mxPoint x="861.25" y="430" />
              <mxPoint x="861.25" y="450" />
            </Array>
          </mxGeometry>
        </mxCell>
        <mxCell id="ttQCRUFPG-6sSN7cf8M8-43" value="划拨资金" style="text;html=1;align=center;verticalAlign=middle;resizable=0;points=[];autosize=1;fontSize=15;" vertex="1" parent="1">
          <mxGeometry x="871.25" y="430" width="80" height="20" as="geometry" />
        </mxCell>
        <mxCell id="ttQCRUFPG-6sSN7cf8M8-49" value="" style="endArrow=classic;html=1;exitX=1;exitY=1;exitDx=0;exitDy=0;entryX=0;entryY=0;entryDx=0;entryDy=0;" edge="1" parent="1" source="ttQCRUFPG-6sSN7cf8M8-13" target="ttQCRUFPG-6sSN7cf8M8-11">
          <mxGeometry width="50" height="50" relative="1" as="geometry">
            <mxPoint x="210" y="320" as="sourcePoint" />
            <mxPoint x="260" y="270" as="targetPoint" />
          </mxGeometry>
        </mxCell>
        <mxCell id="ttQCRUFPG-6sSN7cf8M8-52" value="iCarry" style="rounded=1;whiteSpace=wrap;html=1;fillColor=#dae8fc;strokeColor=#6c8ebf;fontSize=17;" vertex="1" parent="1">
          <mxGeometry x="440" y="40" width="90" height="30" as="geometry" />
        </mxCell>
        <mxCell id="ttQCRUFPG-6sSN7cf8M8-53" value="" style="endArrow=none;dashed=1;html=1;entryX=0.5;entryY=1;entryDx=0;entryDy=0;" edge="1" parent="1" source="ttQCRUFPG-6sSN7cf8M8-55" target="ttQCRUFPG-6sSN7cf8M8-52">
          <mxGeometry width="50" height="50" relative="1" as="geometry">
            <mxPoint x="485" y="560" as="sourcePoint" />
            <mxPoint x="530" y="110" as="targetPoint" />
          </mxGeometry>
        </mxCell>
        <mxCell id="ttQCRUFPG-6sSN7cf8M8-55" value="" style="rounded=0;whiteSpace=wrap;html=1;fontSize=17;fillColor=#d5e8d4;strokeColor=#82b366;" vertex="1" parent="1">
          <mxGeometry x="477.5" y="190" width="15" height="80" as="geometry" />
        </mxCell>
        <mxCell id="ttQCRUFPG-6sSN7cf8M8-56" value="" style="endArrow=none;dashed=1;html=1;entryX=0.5;entryY=1;entryDx=0;entryDy=0;" edge="1" parent="1" target="ttQCRUFPG-6sSN7cf8M8-55">
          <mxGeometry width="50" height="50" relative="1" as="geometry">
            <mxPoint x="485" y="560" as="sourcePoint" />
            <mxPoint x="485" y="70" as="targetPoint" />
          </mxGeometry>
        </mxCell>
        <mxCell id="ttQCRUFPG-6sSN7cf8M8-57" value="" style="curved=1;endArrow=classic;html=1;exitX=1;exitY=0;exitDx=0;exitDy=0;entryX=1;entryY=0.5;entryDx=0;entryDy=0;" edge="1" parent="1" source="ttQCRUFPG-6sSN7cf8M8-55" target="ttQCRUFPG-6sSN7cf8M8-55">
          <mxGeometry width="50" height="50" relative="1" as="geometry">
            <mxPoint x="340" y="300" as="sourcePoint" />
            <mxPoint x="390" y="250" as="targetPoint" />
            <Array as="points">
              <mxPoint x="520" y="200" />
              <mxPoint x="530" y="220" />
            </Array>
          </mxGeometry>
        </mxCell>
        <mxCell id="ttQCRUFPG-6sSN7cf8M8-58" value="审核通过退款申请" style="text;html=1;align=center;verticalAlign=middle;resizable=0;points=[];autosize=1;fontSize=15;" vertex="1" parent="1">
          <mxGeometry x="508.75" y="180" width="140" height="20" as="geometry" />
        </mxCell>
        <mxCell id="ttQCRUFPG-6sSN7cf8M8-59" value="" style="rounded=0;whiteSpace=wrap;html=1;fontSize=17;fillColor=#d5e8d4;strokeColor=#82b366;" vertex="1" parent="1">
          <mxGeometry x="648.75" y="470" width="15" height="40" as="geometry" />
        </mxCell>
        <mxCell id="ttQCRUFPG-6sSN7cf8M8-60" value="" style="endArrow=none;dashed=1;html=1;fontSize=17;" edge="1" parent="1" target="ttQCRUFPG-6sSN7cf8M8-59">
          <mxGeometry width="50" height="50" relative="1" as="geometry">
            <mxPoint x="656" y="560" as="sourcePoint" />
            <mxPoint x="656.2425742574258" y="70" as="targetPoint" />
          </mxGeometry>
        </mxCell>
        <mxCell id="ttQCRUFPG-6sSN7cf8M8-61" value="" style="rounded=0;whiteSpace=wrap;html=1;fontSize=17;fillColor=#d5e8d4;strokeColor=#82b366;" vertex="1" parent="1">
          <mxGeometry x="823.75" y="580" width="15" height="40" as="geometry" />
        </mxCell>
        <mxCell id="ttQCRUFPG-6sSN7cf8M8-62" value="" style="rounded=0;whiteSpace=wrap;html=1;fontSize=17;fillColor=#d5e8d4;strokeColor=#82b366;" vertex="1" parent="1">
          <mxGeometry x="147.5" y="565" width="15" height="40" as="geometry" />
        </mxCell>
        <mxCell id="ttQCRUFPG-6sSN7cf8M8-63" value="" style="shape=flexArrow;endArrow=classic;html=1;" edge="1" parent="1">
          <mxGeometry width="50" height="50" relative="1" as="geometry">
            <mxPoint x="810" y="590" as="sourcePoint" />
            <mxPoint x="200" y="590" as="targetPoint" />
          </mxGeometry>
        </mxCell>
        <mxCell id="ttQCRUFPG-6sSN7cf8M8-64" value="异步通知退款结果" style="text;html=1;align=center;verticalAlign=middle;resizable=0;points=[];autosize=1;fontSize=14;" vertex="1" parent="1">
          <mxGeometry x="435" y="610" width="130" height="20" as="geometry" />
        </mxCell>
        <mxCell id="ttQCRUFPG-6sSN7cf8M8-65" value="商家" style="rounded=1;whiteSpace=wrap;html=1;fillColor=#dae8fc;strokeColor=#6c8ebf;fontSize=17;" vertex="1" parent="1">
          <mxGeometry x="280" y="40" width="90" height="30" as="geometry" />
        </mxCell>
      </root>
    </mxGraphModel>
  </diagram>
</mxfile>
